<svg width="54" height="54" viewBox="0 0 54 54" fill="none" xmlns="http://www.w3.org/2000/svg">
<path opacity="0.5" d="M45.6667 0.333252H8.33334C6.21226 0.33537 4.17866 1.1789 2.67883 2.67874C1.179 4.17857 0.335461 6.21217 0.333344 8.33325V34.9999C0.335461 37.121 1.179 39.1546 2.67883 40.6544C4.17866 42.1543 6.21226 42.9978 8.33334 42.9999H39.2293L49.1147 52.8853C49.4876 53.2581 49.9627 53.512 50.4799 53.6148C50.9971 53.7177 51.5332 53.6648 52.0204 53.4631C52.5076 53.2613 52.9241 52.9196 53.2171 52.4811C53.5101 52.0427 53.6666 51.5273 53.6667 50.9999V8.33325C53.6646 6.21217 52.821 4.17857 51.3212 2.67874C49.8214 1.1789 47.7878 0.33537 45.6667 0.333252ZM16.3333 24.3333C15.8059 24.3333 15.2904 24.1769 14.8518 23.8838C14.4133 23.5908 14.0715 23.1743 13.8697 22.6871C13.6678 22.1998 13.615 21.6636 13.7179 21.1463C13.8208 20.6291 14.0748 20.1539 14.4477 19.781C14.8207 19.408 15.2958 19.1541 15.8131 19.0512C16.3304 18.9483 16.8666 19.0011 17.3538 19.2029C17.8411 19.4047 18.2576 19.7465 18.5506 20.1851C18.8436 20.6236 19 21.1392 19 21.6666C19 22.3738 18.7191 23.0521 18.219 23.5522C17.7189 24.0523 17.0406 24.3333 16.3333 24.3333ZM27 24.3333C26.4726 24.3333 25.957 24.1769 25.5185 23.8838C25.08 23.5908 24.7382 23.1743 24.5363 22.6871C24.3345 22.1998 24.2817 21.6636 24.3846 21.1463C24.4875 20.6291 24.7415 20.1539 25.1144 19.781C25.4873 19.408 25.9625 19.1541 26.4798 19.0512C26.9971 18.9483 27.5332 19.0011 28.0205 19.2029C28.5078 19.4047 28.9242 19.7465 29.2173 20.1851C29.5103 20.6236 29.6667 21.1392 29.6667 21.6666C29.6667 22.3738 29.3857 23.0521 28.8856 23.5522C28.3855 24.0523 27.7073 24.3333 27 24.3333ZM37.6667 24.3333C37.1393 24.3333 36.6237 24.1769 36.1852 23.8838C35.7466 23.5908 35.4048 23.1743 35.203 22.6871C35.0012 22.1998 34.9484 21.6636 35.0513 21.1463C35.1541 20.6291 35.4081 20.1539 35.7811 19.781C36.154 19.408 36.6292 19.1541 37.1464 19.0512C37.6637 18.9483 38.1999 19.0011 38.6872 19.2029C39.1744 19.4047 39.5909 19.7465 39.8839 20.1851C40.1769 20.6236 40.3333 21.1392 40.3333 21.6666C40.3333 22.3738 40.0524 23.0521 39.5523 23.5522C39.0522 24.0523 38.3739 24.3333 37.6667 24.3333Z" fill="#D06C6C"/>
</svg>
