<svg width="19" height="19" viewBox="0 0 19 19" fill="none" xmlns="http://www.w3.org/2000/svg">
<path fill-rule="evenodd" clip-rule="evenodd" d="M5.37452 0.0543574C6.34966 0.00988315 6.66058 0 9.14458 0C11.6286 0 11.9395 0.0107068 12.9138 0.0543574C13.8881 0.0980081 14.5532 0.252021 15.1351 0.475216C15.7445 0.703352 16.2973 1.05997 16.7545 1.52118C17.2201 1.97334 17.5792 2.52021 17.8087 3.12473C18.0348 3.70125 18.1894 4.36012 18.2343 5.32373C18.2792 6.29146 18.2892 6.59949 18.2892 9.05957C18.2892 11.5205 18.2784 11.8285 18.2343 12.7946C18.1902 13.7582 18.0348 14.4171 17.8087 14.9936C17.5792 15.5982 17.2195 16.146 16.7545 16.5988C16.2973 17.06 15.7445 17.4158 15.1351 17.6431C14.5532 17.8671 13.8881 18.0203 12.9155 18.0648C11.9395 18.1093 11.6286 18.1191 9.14458 18.1191C6.66058 18.1191 6.34966 18.1084 5.37452 18.0648C4.40187 18.0211 3.73681 17.8671 3.15488 17.6431C2.54462 17.4158 1.99171 17.0594 1.53463 16.5988C1.0694 16.1464 0.709382 15.5988 0.479675 14.9944C0.254386 14.4179 0.099759 13.759 0.0548675 12.7954C0.00997589 11.8277 0 11.5197 0 9.05957C0 6.59866 0.0108072 6.29064 0.0548675 5.32538C0.0989277 4.36012 0.254386 3.70125 0.479675 3.12473C0.709721 2.52027 1.07001 1.97277 1.53546 1.52036C1.99189 1.05956 2.54425 0.702894 3.15405 0.475216C3.73598 0.252021 4.40104 0.0988317 5.37369 0.0543574H5.37452ZM12.8398 1.68508C11.8755 1.64143 11.5862 1.63237 9.14458 1.63237C6.70298 1.63237 6.41367 1.64143 5.44934 1.68508C4.55733 1.72544 4.07349 1.87286 3.75094 1.99722C3.32447 2.16194 3.01937 2.35714 2.69931 2.67422C2.39592 2.96664 2.16243 3.32262 2.01596 3.71607C1.89043 4.03563 1.74163 4.51496 1.70089 5.39868C1.65683 6.35405 1.64769 6.64067 1.64769 9.05957C1.64769 11.4785 1.65683 11.7651 1.70089 12.7205C1.74163 13.6042 1.89043 14.0835 2.01596 14.4031C2.16228 14.7959 2.39588 15.1525 2.69931 15.4449C2.99443 15.7455 3.3544 15.977 3.75094 16.1219C4.07349 16.2463 4.55733 16.3937 5.44934 16.4341C6.41367 16.4777 6.70215 16.4868 9.14458 16.4868C11.587 16.4868 11.8755 16.4777 12.8398 16.4341C13.7318 16.3937 14.2157 16.2463 14.5382 16.1219C14.9647 15.9572 15.2698 15.762 15.5898 15.4449C15.8933 15.1525 16.1269 14.7959 16.2732 14.4031C16.3987 14.0835 16.5475 13.6042 16.5883 12.7205C16.6323 11.7651 16.6415 11.4785 16.6415 9.05957C16.6415 6.64067 16.6323 6.35405 16.5883 5.39868C16.5475 4.51496 16.3987 4.03563 16.2732 3.71607C16.1069 3.29357 15.9099 2.99131 15.5898 2.67422C15.2947 2.37367 14.9353 2.14235 14.5382 1.99722C14.2157 1.87286 13.7318 1.72544 12.8398 1.68508ZM7.97657 11.8524C8.62887 12.1214 9.35522 12.1577 10.0315 11.9551C10.7079 11.7525 11.2922 11.3236 11.6848 10.7416C12.0774 10.1595 12.2538 9.46056 12.1839 8.76399C12.1141 8.06742 11.8023 7.41647 11.3019 6.92234C10.9828 6.60647 10.5971 6.36461 10.1724 6.21416C9.74767 6.06372 9.29457 6.00844 8.84571 6.0523C8.39685 6.09616 7.96339 6.23807 7.57654 6.46782C7.18968 6.69756 6.85905 7.00943 6.60846 7.38096C6.35786 7.75249 6.19353 8.17444 6.1273 8.61644C6.06106 9.05844 6.09457 9.5095 6.22541 9.93713C6.35625 10.3648 6.58117 10.7583 6.88397 11.0895C7.18677 11.4207 7.55993 11.6812 7.97657 11.8524ZM5.82094 5.76683C6.25741 5.33442 6.77557 4.99141 7.34584 4.7574C7.91611 4.52338 8.52732 4.40293 9.14458 4.40293C9.76184 4.40293 10.373 4.52338 10.9433 4.7574C11.5136 4.99141 12.0318 5.33442 12.4682 5.76683C12.9047 6.19924 13.2509 6.71258 13.4871 7.27755C13.7233 7.84252 13.8449 8.44805 13.8449 9.05957C13.8449 9.67109 13.7233 10.2766 13.4871 10.8416C13.2509 11.4066 12.9047 11.9199 12.4682 12.3523C11.5867 13.2256 10.3912 13.7162 9.14458 13.7162C7.89797 13.7162 6.70242 13.2256 5.82094 12.3523C4.93946 11.479 4.44424 10.2946 4.44424 9.05957C4.44424 7.82455 4.93946 6.64012 5.82094 5.76683ZM14.8874 5.09642C14.9955 4.99534 15.0821 4.87379 15.142 4.73896C15.2019 4.60413 15.2339 4.45877 15.236 4.31147C15.2382 4.16418 15.2105 4.01796 15.1546 3.88146C15.0987 3.74496 15.0158 3.62095 14.9106 3.51679C14.8055 3.41263 14.6803 3.33043 14.5425 3.27505C14.4048 3.21967 14.2572 3.19224 14.1085 3.19439C13.9598 3.19654 13.8131 3.22822 13.677 3.28755C13.5409 3.34688 13.4182 3.43267 13.3162 3.53982C13.1177 3.74822 13.0091 4.02502 13.0133 4.31147C13.0175 4.59793 13.1343 4.87148 13.3387 5.07405C13.5432 5.27663 13.8193 5.39228 14.1085 5.39646C14.3976 5.40063 14.677 5.293 14.8874 5.09642Z" fill="white"/>
</svg>
