<svg width="127" height="31" viewBox="0 0 127 31" fill="none" xmlns="http://www.w3.org/2000/svg">
<path d="M8.85415 0.744141H17.5182L25.5304 11.1601H17.1651L8.85415 0.744141Z" fill="white"/>
<path d="M8.90847 11.1602H17.2737L17.3281 11.2153L15.3182 14.1913L8.74551 24.5246H0L8.90847 11.1602Z" fill="white"/>
<path d="M48.1275 24.5244H41.6091L36.7203 16.8364L35.1993 18.7102V24.5244H29.6044V0H35.1993V14.632L41.2017 6.83378H47.6386L41.3646 14.4667L48.1275 24.5244Z" fill="white"/>
<path d="M56.71 4.29867H50.7891V0H56.71V4.29867ZM56.547 24.5244H50.9521V6.83378H56.547V24.5244Z" fill="white"/>
<path d="M80.0133 15.431C80.0133 16.8915 79.796 18.2141 79.3614 19.4266C78.9269 20.6115 78.3565 21.6035 77.6232 22.375C76.8899 23.2017 76.0479 23.8079 75.0973 24.2212C74.1467 24.6346 73.1418 24.855 72.0825 24.855C71.0776 24.855 70.2357 24.7448 69.5567 24.5243C68.8505 24.3039 68.1444 24.0008 67.4382 23.615V30.9999H61.8432V6.83368H67.4382V8.6799C68.3073 7.99101 69.1764 7.41235 70.0727 6.99901C70.969 6.55812 72.0011 6.36523 73.1689 6.36523C75.3417 6.36523 77.0257 7.16435 78.2207 8.79012C79.4157 10.3883 80.0133 12.5928 80.0133 15.431ZM74.2553 15.5412C74.2553 13.8328 73.9566 12.5652 73.3862 11.7937C72.8159 11.0221 71.8924 10.6363 70.6431 10.6363C70.127 10.6363 69.5838 10.719 69.0135 10.8843C68.4431 11.0497 67.9271 11.2701 67.411 11.5732V20.4737C67.7913 20.6115 68.1715 20.7217 68.6061 20.7492C69.0406 20.8043 69.448 20.8043 69.8554 20.8043C71.3221 20.8043 72.4356 20.3635 73.1689 19.4817C73.9023 18.6275 74.2553 17.3048 74.2553 15.5412Z" fill="white"/>
<path d="M101.225 16.7263H88.4328C88.5143 18.104 89.0304 19.1787 89.981 19.8952C90.9316 20.6392 92.3439 20.9974 94.2179 20.9974C95.3858 20.9974 96.5537 20.7769 97.6401 20.3636C98.7265 19.9503 99.6228 19.4818 100.275 18.9858H100.899V23.5325C99.6227 24.056 98.4549 24.4143 97.3413 24.6623C96.2278 24.8827 94.9784 25.0205 93.6204 25.0205C90.1168 25.0205 87.4279 24.2214 85.5811 22.6232C83.707 21.0249 82.7836 18.7654 82.7836 15.7894C82.7836 12.8685 83.6527 10.5538 85.4181 8.84538C87.1835 7.13694 89.6007 6.28271 92.6698 6.28271C95.4944 6.28271 97.6401 6.99916 99.0795 8.4596C100.519 9.92005 101.225 12.0143 101.225 14.7423V16.7263ZM95.6574 13.392C95.6302 12.2072 95.3315 11.3254 94.7883 10.7192C94.2451 10.1129 93.376 9.80983 92.2352 9.80983C91.1488 9.80983 90.2797 10.0854 89.5736 10.664C88.8674 11.2427 88.4872 12.152 88.4057 13.392H95.6574Z" fill="white"/>
<path d="M117.82 12.2348H117.331C117.087 12.1521 116.706 12.097 116.19 12.0419C115.674 11.9868 115.213 11.9868 114.887 11.9868C114.099 11.9868 113.393 12.0419 112.768 12.1521C112.171 12.2624 111.492 12.4277 110.813 12.6757V24.5246H105.218V6.83392H110.813V9.42414C112.035 8.34948 113.121 7.63303 114.018 7.30236C114.914 6.94414 115.756 6.77881 116.516 6.77881C116.706 6.77881 116.924 6.77881 117.195 6.80636C117.44 6.80636 117.657 6.83392 117.847 6.86148V12.2348H117.82Z" fill="white"/>
<path d="M127 24.5242H121.188V18.3242H127V24.5242Z" fill="white"/>
</svg>
