<svg width="52" height="46" viewBox="0 0 52 46" fill="none" xmlns="http://www.w3.org/2000/svg">
<g filter="url(#filter0_d)">
<path d="M26 0C13.8484 0 4 7.89687 4 17.6429C4 21.85 5.83906 25.7009 8.89844 28.729C7.82422 33.004 4.23203 36.8125 4.18906 36.8549C4 37.05 3.94844 37.3384 4.06016 37.5929C4.17188 37.8473 4.4125 38 4.6875 38C10.3852 38 14.6563 35.3027 16.7703 33.6402C19.5805 34.6835 22.7 35.2857 26 35.2857C38.1516 35.2857 48 27.3888 48 17.6429C48 7.89687 38.1516 0 26 0Z" fill="#E53F28"/>
</g>
<defs>
<filter id="filter0_d" x="0" y="0" width="52" height="46" filterUnits="userSpaceOnUse" color-interpolation-filters="sRGB">
<feFlood flood-opacity="0" result="BackgroundImageFix"/>
<feColorMatrix in="SourceAlpha" type="matrix" values="0 0 0 0 0 0 0 0 0 0 0 0 0 0 0 0 0 0 127 0" result="hardAlpha"/>
<feOffset dy="4"/>
<feGaussianBlur stdDeviation="2"/>
<feComposite in2="hardAlpha" operator="out"/>
<feColorMatrix type="matrix" values="0 0 0 0 0 0 0 0 0 0 0 0 0 0 0 0 0 0 0.25 0"/>
<feBlend mode="normal" in2="BackgroundImageFix" result="effect1_dropShadow"/>
<feBlend mode="normal" in="SourceGraphic" in2="effect1_dropShadow" result="shape"/>
</filter>
</defs>
</svg>
