<svg width="233" height="124" viewBox="0 0 233 124" fill="none" xmlns="http://www.w3.org/2000/svg">
<path d="M224.14 0H215.971H215.833L217.91 2.91275L224.417 13.038H233L224.14 0Z" fill="#E53F28"/>
<path d="M204.758 0H196.589H196.451L198.528 2.91275L205.034 13.038H213.618L204.758 0Z" fill="#E53F28"/>
<path d="M185.099 0H176.93H176.792L178.869 2.91275L185.376 13.038H193.959L185.099 0Z" fill="#E53F28"/>
<path d="M165.44 0H157.272H157.133L159.21 2.91275L165.717 13.038H174.3L165.44 0Z" fill="#E53F28"/>
<path d="M145.781 0H137.613H137.474L139.551 2.91275L146.058 13.038H154.641L145.781 0Z" fill="#E53F28"/>
<path d="M126.122 0H117.954H117.815L119.892 2.91275L126.399 13.038H134.982L126.122 0Z" fill="#E53F28"/>
<path d="M106.601 0H98.2947H98.1563L100.233 2.91275L106.74 13.038H115.323L106.601 0Z" fill="#E53F28"/>
<path d="M86.9424 0H78.6358H78.4973L80.574 2.91275L87.0808 13.038H95.6643L86.9424 0Z" fill="#E53F28"/>
<path d="M67.2835 0H58.9769H58.8384L60.9151 2.91275L67.4219 13.038H76.0054L67.2835 0Z" fill="#E53F28"/>
<path d="M47.6245 0H39.3179H39.1794L41.2561 2.91275L47.7629 13.038H56.3464L47.6245 0Z" fill="#E53F28"/>
<path d="M27.9655 0H19.6589H19.5205L21.5972 2.91275L28.104 13.038H36.6875L27.9655 0Z" fill="#E53F28"/>
<path d="M8.3066 0H0L1.93822 2.91275L8.44505 13.038H17.0285L8.3066 0Z" fill="#E53F28"/>
<path d="M224.14 22.1924H215.971H215.833L217.91 25.1051L224.417 35.2304H233L224.14 22.1924Z" fill="#E53F28"/>
<path d="M204.758 22.1924H196.589H196.451L198.528 25.1051L205.034 35.2304H213.618L204.758 22.1924Z" fill="#E53F28"/>
<path d="M185.099 22.1924H176.93H176.792L178.869 25.1051L185.376 35.2304H193.959L185.099 22.1924Z" fill="#E53F28"/>
<path d="M165.44 22.1924H157.272H157.133L159.21 25.1051L165.717 35.2304H174.3L165.44 22.1924Z" fill="#E53F28"/>
<path d="M145.781 22.1924H137.613H137.474L139.551 25.1051L146.058 35.2304H154.641L145.781 22.1924Z" fill="#E53F28"/>
<path d="M126.122 22.1924H117.954H117.815L119.892 25.1051L126.399 35.2304H134.982L126.122 22.1924Z" fill="#E53F28"/>
<path d="M106.601 22.1924H98.2947H98.1563L100.233 25.1051L106.74 35.2304H115.323L106.601 22.1924Z" fill="#E53F28"/>
<path d="M86.9424 22.1924H78.6358H78.4973L80.574 25.1051L87.0808 35.2304H95.6643L86.9424 22.1924Z" fill="#E53F28"/>
<path d="M67.2835 22.1924H58.9769H58.8384L60.9151 25.1051L67.4219 35.2304H76.0054L67.2835 22.1924Z" fill="#E53F28"/>
<path d="M47.6245 22.1924H39.3179H39.1794L41.2561 25.1051L47.7629 35.2304H56.3464L47.6245 22.1924Z" fill="#E53F28"/>
<path d="M27.9655 22.1924H19.6589H19.5205L21.5972 25.1051L28.104 35.2304H36.6875L27.9655 22.1924Z" fill="#E53F28"/>
<path d="M8.3066 22.1924H0L1.93822 25.1051L8.44505 35.2304H17.0285L8.3066 22.1924Z" fill="#E53F28"/>
<path d="M224.14 44.3848H215.971H215.833L217.91 47.2975L224.417 57.4228H233L224.14 44.3848Z" fill="#E53F28"/>
<path d="M204.758 44.3848H196.589H196.451L198.528 47.2975L205.034 57.4228H213.618L204.758 44.3848Z" fill="#E53F28"/>
<path d="M185.099 44.3848H176.93H176.792L178.869 47.2975L185.376 57.4228H193.959L185.099 44.3848Z" fill="#E53F28"/>
<path d="M165.44 44.3848H157.272H157.133L159.21 47.2975L165.717 57.4228H174.3L165.44 44.3848Z" fill="#E53F28"/>
<path d="M145.781 44.3848H137.613H137.474L139.551 47.2975L146.058 57.4228H154.641L145.781 44.3848Z" fill="#E53F28"/>
<path d="M126.122 44.3848H117.954H117.815L119.892 47.2975L126.399 57.4228H134.982L126.122 44.3848Z" fill="#E53F28"/>
<path d="M106.601 44.3848H98.2947H98.1563L100.233 47.2975L106.74 57.4228H115.323L106.601 44.3848Z" fill="#E53F28"/>
<path d="M86.9424 44.3848H78.6358H78.4973L80.574 47.2975L87.0808 57.4228H95.6643L86.9424 44.3848Z" fill="#E53F28"/>
<path d="M67.2835 44.3848H58.9769H58.8384L60.9151 47.2975L67.4219 57.4228H76.0054L67.2835 44.3848Z" fill="#E53F28"/>
<path d="M47.6245 44.3848H39.3179H39.1794L41.2561 47.2975L47.7629 57.4228H56.3464L47.6245 44.3848Z" fill="#E53F28"/>
<path d="M27.9655 44.3848H19.6589H19.5205L21.5972 47.2975L28.104 57.4228H36.6875L27.9655 44.3848Z" fill="#E53F28"/>
<path d="M8.3066 44.3848H0L1.93822 47.2975L8.44505 57.4228H17.0285L8.3066 44.3848Z" fill="#E53F28"/>
<path d="M224.14 66.5771H215.971H215.833L217.91 69.4899L224.417 79.6152H233L224.14 66.5771Z" fill="#E53F28"/>
<path d="M204.758 66.5771H196.589H196.451L198.528 69.4899L205.034 79.6152H213.618L204.758 66.5771Z" fill="#E53F28"/>
<path d="M185.099 66.5771H176.93H176.792L178.869 69.4899L185.376 79.6152H193.959L185.099 66.5771Z" fill="#E53F28"/>
<path d="M165.44 66.5771H157.272H157.133L159.21 69.4899L165.717 79.6152H174.3L165.44 66.5771Z" fill="#E53F28"/>
<path d="M145.781 66.5771H137.613H137.474L139.551 69.4899L146.058 79.6152H154.641L145.781 66.5771Z" fill="#E53F28"/>
<path d="M126.122 66.5771H117.954H117.815L119.892 69.4899L126.399 79.6152H134.982L126.122 66.5771Z" fill="#E53F28"/>
<path d="M106.601 66.5771H98.2947H98.1563L100.233 69.4899L106.74 79.6152H115.323L106.601 66.5771Z" fill="#E53F28"/>
<path d="M86.9424 66.5771H78.6358H78.4973L80.574 69.4899L87.0808 79.6152H95.6643L86.9424 66.5771Z" fill="#E53F28"/>
<path d="M67.2835 66.5771H58.9769H58.8384L60.9151 69.4899L67.4219 79.6152H76.0054L67.2835 66.5771Z" fill="#E53F28"/>
<path d="M47.6245 66.5771H39.3179H39.1794L41.2561 69.4899L47.7629 79.6152H56.3464L47.6245 66.5771Z" fill="#E53F28"/>
<path d="M27.9655 66.5771H19.6589H19.5205L21.5972 69.4899L28.104 79.6152H36.6875L27.9655 66.5771Z" fill="#E53F28"/>
<path d="M8.3066 66.5771H0L1.93822 69.4899L8.44505 79.6152H17.0285L8.3066 66.5771Z" fill="#E53F28"/>
<path d="M224.14 88.7695H215.971H215.833L217.91 91.6823L224.417 101.808H233L224.14 88.7695Z" fill="#E53F28"/>
<path d="M204.758 88.7695H196.589H196.451L198.528 91.6823L205.034 101.808H213.618L204.758 88.7695Z" fill="#E53F28"/>
<path d="M185.099 88.7695H176.93H176.792L178.869 91.6823L185.376 101.808H193.959L185.099 88.7695Z" fill="#E53F28"/>
<path d="M165.44 88.7695H157.272H157.133L159.21 91.6823L165.717 101.808H174.3L165.44 88.7695Z" fill="#E53F28"/>
<path d="M145.781 88.7695H137.613H137.474L139.551 91.6823L146.058 101.808H154.641L145.781 88.7695Z" fill="#E53F28"/>
<path d="M126.122 88.7695H117.954H117.815L119.892 91.6823L126.399 101.808H134.982L126.122 88.7695Z" fill="#E53F28"/>
<path d="M106.601 88.7695H98.2947H98.1563L100.233 91.6823L106.74 101.808H115.323L106.601 88.7695Z" fill="#E53F28"/>
<path d="M86.9424 88.7695H78.6358H78.4973L80.574 91.6823L87.0808 101.808H95.6643L86.9424 88.7695Z" fill="#E53F28"/>
<path d="M67.2835 88.7695H58.9769H58.8384L60.9151 91.6823L67.4219 101.808H76.0054L67.2835 88.7695Z" fill="#E53F28"/>
<path d="M47.6245 88.7695H39.3179H39.1794L41.2561 91.6823L47.7629 101.808H56.3464L47.6245 88.7695Z" fill="#E53F28"/>
<path d="M27.9655 88.7695H19.6589H19.5205L21.5972 91.6823L28.104 101.808H36.6875L27.9655 88.7695Z" fill="#E53F28"/>
<path d="M8.3066 88.7695H0L1.93822 91.6823L8.44505 101.808H17.0285L8.3066 88.7695Z" fill="#E53F28"/>
<path d="M224.14 110.962H215.971H215.833L217.91 113.875L224.417 124H233L224.14 110.962Z" fill="#E53F28"/>
<path d="M204.758 110.962H196.589H196.451L198.528 113.875L205.034 124H213.618L204.758 110.962Z" fill="#E53F28"/>
<path d="M185.099 110.962H176.93H176.792L178.869 113.875L185.376 124H193.959L185.099 110.962Z" fill="#E53F28"/>
<path d="M165.44 110.962H157.272H157.133L159.21 113.875L165.717 124H174.3L165.44 110.962Z" fill="#E53F28"/>
<path d="M145.781 110.962H137.613H137.474L139.551 113.875L146.058 124H154.641L145.781 110.962Z" fill="#E53F28"/>
<path d="M126.122 110.962H117.954H117.815L119.892 113.875L126.399 124H134.982L126.122 110.962Z" fill="#E53F28"/>
<path d="M106.601 110.962H98.2947H98.1563L100.233 113.875L106.74 124H115.323L106.601 110.962Z" fill="#E53F28"/>
<path d="M86.9424 110.962H78.6358H78.4973L80.574 113.875L87.0808 124H95.6643L86.9424 110.962Z" fill="#E53F28"/>
<path d="M67.2835 110.962H58.9769H58.8384L60.9151 113.875L67.4219 124H76.0054L67.2835 110.962Z" fill="#E53F28"/>
<path d="M47.6245 110.962H39.3179H39.1794L41.2561 113.875L47.7629 124H56.3464L47.6245 110.962Z" fill="#E53F28"/>
<path d="M27.9655 110.962H19.6589H19.5205L21.5972 113.875L28.104 124H36.6875L27.9655 110.962Z" fill="#E53F28"/>
<path d="M8.3066 110.962H0L1.93822 113.875L8.44505 124H17.0285L8.3066 110.962Z" fill="#E53F28"/>
</svg>
