<svg width="64" height="64" viewBox="0 0 64 64" fill="none" xmlns="http://www.w3.org/2000/svg">
<path opacity="0.5" d="M44 46.6668H20C16.1102 46.6668 12.3796 45.1216 9.62911 42.3711C6.87858 39.6205 5.33334 35.89 5.33334 32.0002C5.33334 28.1103 6.87858 24.3798 9.62911 21.6293C12.3796 18.8787 16.1102 17.3335 20 17.3335H44C47.8899 17.3335 51.6204 18.8787 54.3709 21.6293C57.1214 24.3798 58.6667 28.1103 58.6667 32.0002C58.6667 35.89 57.1214 39.6205 54.3709 42.3711C51.6204 45.1216 47.8899 46.6668 44 46.6668Z" fill="#D06C6C"/>
<path d="M20 38.6668C23.6819 38.6668 26.6667 35.6821 26.6667 32.0002C26.6667 28.3183 23.6819 25.3335 20 25.3335C16.3181 25.3335 13.3333 28.3183 13.3333 32.0002C13.3333 35.6821 16.3181 38.6668 20 38.6668Z" fill="#E53F28"/>
</svg>
