<svg width="64" height="64" viewBox="0 0 64 64" fill="none" xmlns="http://www.w3.org/2000/svg">
<path opacity="0.25" d="M40 5.33326C35.6356 5.33541 31.41 6.86722 28.058 9.66231C24.706 12.4574 22.4398 16.3389 21.6533 20.6319C24.6879 18.9726 28.1785 18.3412 31.602 18.8324C35.0256 19.3235 38.1978 20.9109 40.6434 23.3565C43.0891 25.8021 44.6764 28.9743 45.1676 32.3979C45.6587 35.8215 45.0274 39.312 43.368 42.3466C47.9503 41.5092 52.0537 38.988 54.8715 35.2786C57.6893 31.5693 59.0176 26.9401 58.5955 22.3011C58.1734 17.662 56.0313 13.3486 52.5903 10.2088C49.1492 7.069 44.6582 5.32986 40 5.33326Z" fill="#DE9595"/>
<path d="M18.6667 58.6667C26.0305 58.6667 32 52.6971 32 45.3333C32 37.9695 26.0305 32 18.6667 32C11.3029 32 5.33334 37.9695 5.33334 45.3333C5.33334 52.6971 11.3029 58.6667 18.6667 58.6667Z" fill="#E53F28"/>
<path opacity="0.5" d="M29.3333 18.6667C25.3643 18.6671 21.5371 20.1426 18.5951 22.8067C15.6531 25.4708 13.8063 29.1333 13.4133 33.0827C15.8622 32.0303 18.5704 31.7365 21.1881 32.2393C23.8057 32.742 26.2123 34.0182 28.0971 35.903C29.9819 37.7877 31.2581 40.1944 31.7608 42.812C32.2636 45.4296 31.9697 48.1379 30.9173 50.5867C35.0006 50.1769 38.7702 48.2138 41.4471 45.1032C44.1239 41.9926 45.5031 37.9725 45.2997 33.8737C45.0963 29.775 43.3258 25.9111 40.3542 23.0809C37.3826 20.2506 33.4371 18.6703 29.3333 18.6667Z" fill="#D06C6C"/>
</svg>
