<svg width="58" height="58" viewBox="0 0 58 58" fill="none" xmlns="http://www.w3.org/2000/svg">
<path opacity="0.25" d="M14.5 55.5832H4.83333C4.19239 55.5832 3.5777 55.3286 3.12449 54.8753C2.67128 54.4221 2.41666 53.8074 2.41666 53.1665V33.8332C2.41666 33.1922 2.67128 32.5775 3.12449 32.1243C3.5777 31.6711 4.19239 31.4165 4.83333 31.4165H14.5C15.1409 31.4165 15.7556 31.6711 16.2088 32.1243C16.662 32.5775 16.9167 33.1922 16.9167 33.8332V53.1665C16.9167 53.8074 16.662 54.4221 16.2088 54.8753C15.7556 55.3286 15.1409 55.5832 14.5 55.5832Z" fill="#50D4F1"/>
<path d="M33.8333 55.5832H24.1667C23.5257 55.5832 22.911 55.3286 22.4578 54.8753C22.0046 54.4221 21.75 53.8074 21.75 53.1665V4.83317C21.75 4.19223 22.0046 3.57754 22.4578 3.12433C22.911 2.67112 23.5257 2.4165 24.1667 2.4165H33.8333C34.4743 2.4165 35.089 2.67112 35.5422 3.12433C35.9954 3.57754 36.25 4.19223 36.25 4.83317V53.1665C36.25 53.8074 35.9954 54.4221 35.5422 54.8753C35.089 55.3286 34.4743 55.5832 33.8333 55.5832Z" fill="#50D4F1"/>
<path opacity="0.5" d="M53.1667 55.5833H43.5C42.8591 55.5833 42.2444 55.3287 41.7912 54.8755C41.3379 54.4223 41.0833 53.8076 41.0833 53.1667V24.1667C41.0833 23.5257 41.3379 22.911 41.7912 22.4578C42.2444 22.0046 42.8591 21.75 43.5 21.75H53.1667C53.8076 21.75 54.4223 22.0046 54.8755 22.4578C55.3287 22.911 55.5833 23.5257 55.5833 24.1667V53.1667C55.5833 53.8076 55.3287 54.4223 54.8755 54.8755C54.4223 55.3287 53.8076 55.5833 53.1667 55.5833Z" fill="#50D4F1"/>
</svg>
