<svg width="223" height="139" viewBox="0 0 223 139" fill="none" xmlns="http://www.w3.org/2000/svg">
<path d="M34.8573 -0.182556H67.5495L67.766 0.0339548L59.7553 11.509L34.2078 51.1305H0L34.8573 -0.182556Z" fill="#E53F28"/>
<path d="M112.595 -0.182556H145.287L145.504 0.0339548L137.493 11.509L111.945 51.1305H77.7376L112.595 -0.182556Z" fill="#50D4F1"/>
<path d="M190.332 -0.182556H223.025V0.0339548L215.23 11.509L189.466 51.1305H155.475L190.332 -0.182556Z" fill="#E53F28"/>
<path d="M112.595 87.4703H145.287L145.504 87.9034L137.493 99.1619L111.945 139H77.7375L112.595 87.4703Z" fill="#E53F28"/>
<path d="M34.8573 87.4705H67.5495L67.766 87.9035L59.7553 99.162L34.2078 139H0L34.8573 87.4705Z" fill="#E53F28"/>
<path d="M190.332 87.4703H223.025V87.9034L215.23 99.1619L189.466 139H155.475L190.332 87.4703Z" fill="#FACF38"/>
</svg>
