<svg width="64" height="64" viewBox="0 0 64 64" fill="none" xmlns="http://www.w3.org/2000/svg">
<path opacity="0.5" d="M50.6667 5.33325H13.3333C11.2123 5.33537 9.17866 6.1789 7.67883 7.67874C6.179 9.17857 5.33546 11.2122 5.33334 13.3333V39.9999C5.33546 42.121 6.179 44.1546 7.67883 45.6544C9.17866 47.1543 11.2123 47.9978 13.3333 47.9999H44.2293L54.1147 57.8853C54.4876 58.2581 54.9627 58.512 55.4799 58.6148C55.9971 58.7177 56.5332 58.6648 57.0204 58.4631C57.5076 58.2613 57.9241 57.9196 58.2171 57.4811C58.5101 57.0427 58.6666 56.5273 58.6667 55.9999V13.3333C58.6646 11.2122 57.821 9.17857 56.3212 7.67874C54.8214 6.1789 52.7878 5.33537 50.6667 5.33325ZM21.3333 29.3333C20.8059 29.3333 20.2904 29.1769 19.8518 28.8838C19.4133 28.5908 19.0715 28.1743 18.8697 27.6871C18.6678 27.1998 18.615 26.6636 18.7179 26.1463C18.8208 25.6291 19.0748 25.1539 19.4477 24.781C19.8207 24.408 20.2958 24.1541 20.8131 24.0512C21.3304 23.9483 21.8666 24.0011 22.3538 24.2029C22.8411 24.4047 23.2576 24.7465 23.5506 25.1851C23.8436 25.6236 24 26.1392 24 26.6666C24 27.3738 23.7191 28.0521 23.219 28.5522C22.7189 29.0523 22.0406 29.3333 21.3333 29.3333ZM32 29.3333C31.4726 29.3333 30.957 29.1769 30.5185 28.8838C30.08 28.5908 29.7382 28.1743 29.5363 27.6871C29.3345 27.1998 29.2817 26.6636 29.3846 26.1463C29.4875 25.6291 29.7415 25.1539 30.1144 24.781C30.4873 24.408 30.9625 24.1541 31.4798 24.0512C31.9971 23.9483 32.5332 24.0011 33.0205 24.2029C33.5078 24.4047 33.9242 24.7465 34.2173 25.1851C34.5103 25.6236 34.6667 26.1392 34.6667 26.6666C34.6667 27.3738 34.3857 28.0521 33.8856 28.5522C33.3855 29.0523 32.7073 29.3333 32 29.3333ZM42.6667 29.3333C42.1393 29.3333 41.6237 29.1769 41.1852 28.8838C40.7466 28.5908 40.4048 28.1743 40.203 27.6871C40.0012 27.1998 39.9484 26.6636 40.0513 26.1463C40.1541 25.6291 40.4081 25.1539 40.7811 24.781C41.154 24.408 41.6292 24.1541 42.1464 24.0512C42.6637 23.9483 43.1999 24.0011 43.6872 24.2029C44.1744 24.4047 44.5909 24.7465 44.8839 25.1851C45.1769 25.6236 45.3333 26.1392 45.3333 26.6666C45.3333 27.3738 45.0524 28.0521 44.5523 28.5522C44.0522 29.0523 43.3739 29.3333 42.6667 29.3333Z" fill="#FACF38"/>
<path d="M21.3333 29.3333C22.8061 29.3333 24 28.1394 24 26.6667C24 25.1939 22.8061 24 21.3333 24C19.8606 24 18.6667 25.1939 18.6667 26.6667C18.6667 28.1394 19.8606 29.3333 21.3333 29.3333Z" fill="#EABC1B"/>
<path d="M32 29.3333C33.4728 29.3333 34.6667 28.1394 34.6667 26.6667C34.6667 25.1939 33.4728 24 32 24C30.5273 24 29.3333 25.1939 29.3333 26.6667C29.3333 28.1394 30.5273 29.3333 32 29.3333Z" fill="#EABC1B"/>
<path d="M42.6667 29.3333C44.1394 29.3333 45.3333 28.1394 45.3333 26.6667C45.3333 25.1939 44.1394 24 42.6667 24C41.1939 24 40 25.1939 40 26.6667C40 28.1394 41.1939 29.3333 42.6667 29.3333Z" fill="#EABC1B"/>
</svg>
