<svg width="64" height="64" viewBox="0 0 64 64" fill="none" xmlns="http://www.w3.org/2000/svg">
<path opacity="0.5" d="M29.3333 21.3333H8.00001C7.29277 21.3333 6.61449 21.0524 6.11439 20.5523C5.61429 20.0522 5.33334 19.3739 5.33334 18.6667C5.33334 17.9594 5.61429 17.2811 6.11439 16.781C6.61449 16.281 7.29277 16 8.00001 16H29.3333C30.0406 16 30.7189 16.281 31.219 16.781C31.7191 17.2811 32 17.9594 32 18.6667C32 19.3739 31.7191 20.0522 31.219 20.5523C30.7189 21.0524 30.0406 21.3333 29.3333 21.3333ZM29.3333 32H8.00001C7.29277 32 6.61449 31.719 6.11439 31.219C5.61429 30.7189 5.33334 30.0406 5.33334 29.3333C5.33334 28.6261 5.61429 27.9478 6.11439 27.4477C6.61449 26.9476 7.29277 26.6667 8.00001 26.6667H29.3333C30.0406 26.6667 30.7189 26.9476 31.219 27.4477C31.7191 27.9478 32 28.6261 32 29.3333C32 30.0406 31.7191 30.7189 31.219 31.219C30.7189 31.719 30.0406 32 29.3333 32Z" fill="#49EFB3"/>
<path d="M56 10.6667H40C38.5273 10.6667 37.3333 11.8607 37.3333 13.3334V29.3334C37.3333 30.8062 38.5273 32.0001 40 32.0001H56C57.4728 32.0001 58.6667 30.8062 58.6667 29.3334V13.3334C58.6667 11.8607 57.4728 10.6667 56 10.6667Z" fill="#49EFB3"/>
<path opacity="0.5" d="M56 42.6666H8.00001C7.29277 42.6666 6.61449 42.3856 6.11439 41.8855C5.61429 41.3854 5.33334 40.7072 5.33334 39.9999C5.33334 39.2927 5.61429 38.6144 6.11439 38.1143C6.61449 37.6142 7.29277 37.3333 8.00001 37.3333H56C56.7073 37.3333 57.3855 37.6142 57.8856 38.1143C58.3857 38.6144 58.6667 39.2927 58.6667 39.9999C58.6667 40.7072 58.3857 41.3854 57.8856 41.8855C57.3855 42.3856 56.7073 42.6666 56 42.6666ZM34.6667 53.3333H8.00001C7.29277 53.3333 6.61449 53.0523 6.11439 52.5522C5.61429 52.0521 5.33334 51.3738 5.33334 50.6666C5.33334 49.9593 5.61429 49.2811 6.11439 48.781C6.61449 48.2809 7.29277 47.9999 8.00001 47.9999H34.6667C35.3739 47.9999 36.0522 48.2809 36.5523 48.781C37.0524 49.2811 37.3333 49.9593 37.3333 50.6666C37.3333 51.3738 37.0524 52.0521 36.5523 52.5522C36.0522 53.0523 35.3739 53.3333 34.6667 53.3333Z" fill="#49EFB3"/>
</svg>
