<svg width="159" height="39" viewBox="0 0 159 39" fill="none" xmlns="http://www.w3.org/2000/svg">
<path d="M11.0851 0.936005H21.9322L31.9632 14.04H21.4901L11.0851 0.936005Z" fill="#E53F28"/>
<path d="M11.1531 14.04H21.6262L21.6942 14.1093L19.1779 17.8533L10.9491 30.8533H0L11.1531 14.04Z" fill="#E53F28"/>
<path d="M60.254 30.8533H52.0932L45.9726 21.1813L44.0684 23.5387V30.8533H37.0637V0H44.0684V18.408L51.5832 8.59733H59.642L51.7872 18.2L60.254 30.8533Z" fill="#E53F28"/>
<path d="M70.9991 5.408H63.5864V0H70.9991V5.408ZM70.7951 30.8533H63.7904V8.59733H70.7951V30.8533Z" fill="#E53F28"/>
<path d="M100.174 19.4133C100.174 21.2507 99.9021 22.9147 99.358 24.44C98.8139 25.9307 98.0999 27.1787 97.1818 28.1493C96.2637 29.1893 95.2096 29.952 94.0195 30.472C92.8293 30.992 91.5712 31.2693 90.2451 31.2693C88.9869 31.2693 87.9328 31.1307 87.0828 30.8533C86.1987 30.576 85.3146 30.1947 84.4305 29.7093V39H77.4258V8.59733H84.4305V10.92C85.5186 10.0533 86.6067 9.32533 87.7288 8.80533C88.8509 8.25066 90.1431 8.008 91.6052 8.008C94.3255 8.008 96.4337 9.01333 97.9299 11.0587C99.426 13.0693 100.174 15.8427 100.174 19.4133ZM92.9653 19.552C92.9653 17.4027 92.5913 15.808 91.8772 14.8373C91.1632 13.8667 90.0071 13.3813 88.4429 13.3813C87.7968 13.3813 87.1168 13.4853 86.4027 13.6933C85.6886 13.9013 85.0425 14.1787 84.3965 14.56V25.7573C84.8725 25.9307 85.3486 26.0693 85.8926 26.104C86.4367 26.1733 86.9467 26.1733 87.4568 26.1733C89.293 26.1733 90.6871 25.6187 91.6052 24.5093C92.5233 23.4347 92.9653 21.7707 92.9653 19.552Z" fill="#E53F28"/>
<path d="M126.731 21.0427H110.715C110.817 22.776 111.463 24.128 112.653 25.0293C113.843 25.9653 115.612 26.416 117.958 26.416C119.42 26.416 120.882 26.1387 122.242 25.6187C123.602 25.0987 124.725 24.5093 125.541 23.8853H126.323V29.6053C124.725 30.264 123.262 30.7147 121.868 31.0267C120.474 31.304 118.91 31.4773 117.21 31.4773C112.823 31.4773 109.457 30.472 107.145 28.4613C104.799 26.4507 103.642 23.608 103.642 19.864C103.642 16.1893 104.731 13.2773 106.941 11.128C109.151 8.97866 112.177 7.90399 116.02 7.90399C119.556 7.90399 122.242 8.80533 124.044 10.6427C125.847 12.48 126.731 15.1147 126.731 18.5467V21.0427ZM119.76 16.848C119.726 15.3573 119.352 14.248 118.672 13.4853C117.992 12.7227 116.904 12.3413 115.476 12.3413C114.115 12.3413 113.027 12.688 112.143 13.416C111.259 14.144 110.783 15.288 110.681 16.848H119.76Z" fill="#E53F28"/>
<path d="M147.507 15.392H146.895C146.589 15.288 146.113 15.2187 145.467 15.1493C144.821 15.08 144.243 15.08 143.834 15.08C142.848 15.08 141.964 15.1493 141.182 15.288C140.434 15.4267 139.584 15.6347 138.734 15.9467V30.8533H131.729V8.59732H138.734V11.856C140.264 10.504 141.624 9.60265 142.746 9.18665C143.868 8.73598 144.923 8.52798 145.875 8.52798C146.113 8.52798 146.385 8.52798 146.725 8.56265C147.031 8.56265 147.303 8.59732 147.541 8.63198V15.392H147.507Z" fill="#E53F28"/>
<path d="M159 30.8533H151.723V23.0533H159V30.8533Z" fill="#E53F28"/>
</svg>
